<svg width="44" height="44" viewBox="0 0 44 44" fill="none" xmlns="http://www.w3.org/2000/svg">
<g filter="url(#filter0_d_2147_4188)">
<path d="M22 36C31.9411 36 40 27.9411 40 18C40 8.05888 31.9411 0 22 0C12.0589 0 4 8.05888 4 18C4 22.152 5.40577 25.9756 7.76732 29.021L11.7355 14.0299C13.3867 7.52344 17.6758 4.15725 24.5616 4.15725H26.936C31.7785 4.15725 35.335 8.70307 34.1698 13.4033C33.9609 14.2463 33.5702 15.0334 33.0253 15.7097L31.0045 18.2174C30.486 18.8609 30.2968 19.7092 30.493 20.5121L31.109 23.0338C31.4278 24.339 31.3695 25.708 30.941 26.9814C29.4832 31.3132 25.4227 34.231 20.8521 34.231H14.2086C16.5662 35.3648 19.2089 36 22 36Z" fill="#141624"/>
<path fill-rule="evenodd" clip-rule="evenodd" d="M21.7 21.7592H18.1932C17.0747 21.7592 16.0968 22.5135 15.8129 23.5953L14.4373 28.8354H19.871C21.8811 28.8354 23.6384 27.4799 24.1487 25.5357L24.2666 25.0865C24.7082 23.4043 23.4392 21.7592 21.7 21.7592ZM20.6646 23.3514H18.759C18.1206 23.3514 17.5623 23.7814 17.3993 24.3988L16.6486 27.2432H19.6532C20.7647 27.2432 21.7364 26.4977 22.0186 25.4284L22.0838 25.1814C22.328 24.2562 21.6263 23.3514 20.6646 23.3514Z" fill="#141624"/>
<path fill-rule="evenodd" clip-rule="evenodd" d="M18.9971 11.7427C19.2811 10.6609 20.2589 9.90663 21.3774 9.90663H24.8843C26.6235 9.90663 27.8925 11.5517 27.4509 13.2339L27.333 13.6831C26.8227 15.6273 25.0654 16.9828 23.0553 16.9828H17.6216L18.9971 11.7427ZM20.5836 12.5462C20.7465 11.9289 21.3049 11.4988 21.9433 11.4988H23.8489C24.8106 11.4988 25.5123 12.4036 25.2681 13.3288L25.2029 13.5758C24.9207 14.6451 23.949 15.3907 22.8375 15.3907H19.8329L20.5836 12.5462Z" fill="#141624"/>
</g>
<defs>
<filter id="filter0_d_2147_4188" x="0" y="0" width="44" height="44" filterUnits="userSpaceOnUse" color-interpolation-filters="sRGB">
<feFlood flood-opacity="0" result="BackgroundImageFix"/>
<feColorMatrix in="SourceAlpha" type="matrix" values="0 0 0 0 0 0 0 0 0 0 0 0 0 0 0 0 0 0 127 0" result="hardAlpha"/>
<feOffset dy="4"/>
<feGaussianBlur stdDeviation="2"/>
<feComposite in2="hardAlpha" operator="out"/>
<feColorMatrix type="matrix" values="0 0 0 0 0 0 0 0 0 0 0 0 0 0 0 0 0 0 0.25 0"/>
<feBlend mode="normal" in2="BackgroundImageFix" result="effect1_dropShadow_2147_4188"/>
<feBlend mode="normal" in="SourceGraphic" in2="effect1_dropShadow_2147_4188" result="shape"/>
</filter>
</defs>
</svg>
